<svg xmlns="http://www.w3.org/2000/svg" fill-rule="evenodd" stroke-linejoin="round" stroke-miterlimit="1.414" clip-rule="evenodd" viewBox="430 0 2030 2210">
<g fill-rule="nonzero"><path fill="#3f403e" d="M1657.935 1190.588c0 116.659-94.584 211.238-211.238 211.238-116.646 0-211.23-94.58-211.23-211.238 0-116.654 94.584-211.229 211.23-211.229 116.654 0 211.238 94.575 211.238 211.23zM1537.743 969.872V721.876c0-52.625-39.321-95.355-91.954-95.355h-1.746c-52.63 0-97.967 42.73-97.967 95.355V971.48c29.167-13.433 62.738-20.967 97.617-20.967 33.487 0 64.883 6.913 94.05 19.359z"/><path fill="#3f403e" d="M1948.214 735.159l-1.233-1.233c-37.217-37.217-97.542-37.217-134.759 0l-101.996 101.996-89.629 89.633-56.017 56.012c57.992 32.83 101.021 89.063 116.184 155.805l75.825-75.821 89.637-89.634 101.988-101.995c37.225-37.217 37.225-97.55 0-134.763z"/><path fill="#f15c55" d="M1443.014 2011.347c-123.663 0-247.455-28.154-357.821-81.345l-2.013-.946-3.287-1.534c-31.613-14.433-65.326-21.745-100.259-21.745-1.87 0-3.712.091-4.92.204-39.272.8-77.976 11.12-111.934 29.862-20.083 11.084-38.6 25.113-55.071 41.717l-.07-.067c-20.147 20.621-48.813 32.934-76.688 32.934-58.075 0-105.321-47.246-105.321-105.321 0-23.196 7.77-45.846 21.95-64.225 7.937-6.9 15.62-14.592 23.366-23.4 11.905-13.525 22.134-27.975 30.409-42.975 18.908-34.246 29.258-73.175 29.954-112.721.092-1.38.15-2.767.15-4.18 0-37.504-8.438-73.562-25.092-107.2-1-2.016-2.029-4.004-3.083-5.987-50.808-107.98-77.663-229.138-77.663-350.463 0-450.713 366.68-817.392 817.393-817.392s817.392 366.68 817.392 817.392c0 450.713-366.68 817.392-817.392 817.392zM2228.73 560.555l63.7-63.688 33.996 33.996c18.77 18.78 49.217 18.78 67.992 0 18.783-18.775 18.783-49.22 0-68l-203.992-203.988c-18.78-18.779-49.225-18.779-67.992 0-18.783 18.775-18.783 49.221 0 67.996l104.188 104.188-70.192-70.188-62.146 62.142c-153.28-129.688-345.575-214.58-556.542-234.3V93.188h54.167c25.312 0 45.833-20.517 45.833-45.834 0-25.312-20.52-45.833-45.833-45.833h-295.834c-25.317 0-45.833 20.52-45.833 45.833 0 25.317 20.516 45.834 45.833 45.834h50v95.72c-206.77 19.788-395.538 102.163-547.063 227.959l-55.992-55.992-17.662 17.663 51.662-51.663c18.78-18.775 18.78-49.22 0-67.996-18.779-18.779-49.22-18.779-68 0L505.025 462.871c-18.775 18.775-18.775 49.221 0 67.996 18.784 18.78 49.23 18.78 68 0l34-33.996 56.259 56.254C519.65 727.58 433.292 950.867 433.292 1193.955c0 97.084 13.83 193.242 41.108 285.805 15.759 53.491 36.367 106.4 61.213 157.179l.333.67c1.959 6.192 3.184 13.8 3.184 19.996 0 11.721-4.055 20.876-8.171 27.142-7.03 6.367-13.667 12.959-19.796 19.659-35.3 38.641-59.833 86.02-70.963 137.033-4.579 20.987-6.9 42.408-6.9 63.667 0 164.129 133.525 297.65 297.65 297.65 21.7 0 43.567-2.425 64.984-7.204 56.192-12.517 107.325-41.084 147.87-82.592 9.388-9.58 22.11-14.858 35.83-14.858 8.217 0 15.738 1.341 21.767 3.991l2.208 1.034c49.771 24.096 101.525 44.12 153.842 59.52 92.512 27.226 188.592 41.03 285.563 41.03 556.767 0 1009.721-452.959 1009.721-1009.722 0-239.667-83.987-460.054-224.004-633.4z"/></g>
</svg>